<svg width="62" height="94" viewBox="0 0 62 94" fill="none" xmlns="http://www.w3.org/2000/svg">
<path d="M9.51641 93.2438H51.6649C56.9124 93.2438 61.1813 89.4525 61.1813 84.7919V8.45193C61.1813 3.79164 56.9124 0 51.6649 0H9.51641C4.26888 0 0 3.79164 0 8.45193V84.7919C0 89.4525 4.26888 93.2438 9.51641 93.2438ZM51.6649 90.5174H9.51641C5.96187 90.5174 3.06981 87.9491 3.06981 84.7919V78.4423H58.1115V84.7919C58.1115 87.9491 55.2194 90.5174 51.6649 90.5174ZM3.06981 75.7159V14.9204H58.1115V75.7159H3.06981ZM9.51641 2.72643H51.6649C55.2194 2.72643 58.1115 5.29472 58.1115 8.45193V12.194H3.06981V8.45193C3.06981 5.29472 5.96187 2.72643 9.51641 2.72643Z" fill="#0E32AE"/>
<path d="M35.1412 6.23853H26.041V8.9659H35.1412V6.23853Z" fill="#0E32AE"/>
<path d="M30.5907 79.8734C27.6535 79.8734 25.2637 81.9957 25.2637 84.6046C25.2637 87.2135 27.6532 89.336 30.5907 89.336C33.5282 89.336 35.918 87.2135 35.918 84.6046C35.918 81.9957 33.5279 79.8734 30.5907 79.8734ZM30.5907 86.6093C29.3459 86.6093 28.3335 85.7099 28.3335 84.6043C28.3335 83.4987 29.3459 82.5996 30.5907 82.5996C31.8355 82.5996 32.8482 83.4987 32.8482 84.6043C32.8482 85.7099 31.8355 86.6093 30.5907 86.6093Z" fill="#0E32AE"/>
</svg>
