<svg width="113" height="83" viewBox="0 0 113 83" fill="none" xmlns="http://www.w3.org/2000/svg">
<path d="M99.3338 39.6947C102.45 38.1298 104.946 35.5586 106.419 32.3977C107.891 29.2369 108.254 25.6714 107.447 22.2791C106.64 18.8867 104.711 15.8661 101.973 13.7066C99.2356 11.5471 95.8488 10.3753 92.3618 10.3809C92.2625 10.3809 92.1654 10.3809 92.0683 10.3809V6.3442C92.0654 4.89757 91.4889 3.51113 90.4654 2.48883C89.4419 1.46653 88.0547 0.891791 86.6081 0.890625H6.45092C5.00429 0.891791 3.61715 1.46653 2.5936 2.48883C1.57006 3.51113 0.993643 4.89757 0.990723 6.3442V58.8583C0.992476 60.3057 1.56838 61.6933 2.59205 62.7165C3.61572 63.7398 5.00352 64.3151 6.45092 64.3163H34.8709V79.8626H25.555C25.2565 79.8626 24.9702 79.9812 24.7591 80.1923C24.548 80.4034 24.4294 80.6897 24.4294 80.9882C24.4294 81.2867 24.548 81.573 24.7591 81.7841C24.9702 81.9952 25.2565 82.1138 25.555 82.1138H76.8707C78.769 82.112 80.589 81.3572 81.9313 80.0149C83.2736 78.6725 84.0285 76.8525 84.0303 74.9542V57.0331C84.0303 56.7346 83.9117 56.4483 83.7006 56.2372C83.4895 56.0261 83.2032 55.9075 82.9047 55.9075C82.6062 55.9075 82.3199 56.0261 82.1088 56.2372C81.8977 56.4483 81.7791 56.7346 81.7791 57.0331V74.9542C81.7779 76.2556 81.2604 77.5034 80.3402 78.4237C79.4199 79.3439 78.1721 79.8615 76.8707 79.8626H53.9396C54.2127 78.0004 55.1459 76.2984 56.5692 75.0668C57.9924 73.8352 59.8108 73.1561 61.6929 73.1533H73.2136C73.5121 73.1533 73.7984 73.0347 74.0095 72.8236C74.2206 72.6125 74.3392 72.3262 74.3392 72.0277V63.471C74.3622 63.3793 74.3741 63.2852 74.3745 63.1907C74.3741 63.0969 74.3622 63.0035 74.3392 62.9126V56.2231C74.3439 52.2829 75.9112 48.5053 78.6974 45.7191C81.4836 42.933 85.2611 41.3656 89.2013 41.361H94.9021C98.8424 41.3656 102.62 42.933 105.406 45.7191C108.192 48.5053 109.76 52.2829 109.764 56.2231V80.9882C109.764 81.2867 109.883 81.573 110.094 81.7841C110.305 81.9952 110.591 82.1138 110.89 82.1138C111.188 82.1138 111.475 81.9952 111.686 81.7841C111.897 81.573 112.015 81.2867 112.015 80.9882V56.2231C112.01 52.4578 110.765 48.799 108.473 45.8117C106.181 42.8244 102.969 40.6748 99.3338 39.6947ZM105.595 25.8764C105.595 28.4955 104.819 31.0557 103.363 33.2334C101.908 35.4111 99.8402 37.1083 97.4205 38.1106C95.0009 39.1129 92.3383 39.3751 89.7696 38.8642C87.2008 38.3532 84.8413 37.092 82.9893 35.2401C81.1374 33.3881 79.8762 31.0286 79.3652 28.4599C78.8543 25.8911 79.1165 23.2286 80.1188 20.8089C81.1211 18.3892 82.8184 16.321 84.996 14.866C87.1737 13.4109 89.7339 12.6342 92.353 12.6342C94.092 12.6342 95.8139 12.9768 97.4205 13.6422C99.0272 14.3077 100.487 15.2831 101.717 16.5128C102.946 17.7424 103.922 19.2022 104.587 20.8089C105.253 22.4155 105.595 24.1374 105.595 25.8764ZM3.24189 58.8583V56.3136H72.088V62.0651H6.45092C5.60021 62.0651 4.78432 61.7273 4.18258 61.126C3.58083 60.5247 3.24248 59.709 3.24189 58.8583ZM25.555 32.9897C24.3431 32.9901 23.1584 32.6312 22.1506 31.9582C21.1427 31.2853 20.3571 30.3286 19.8931 29.2091C19.429 28.0896 19.3074 26.8577 19.5435 25.6691C19.7797 24.4804 20.363 23.3886 21.2197 22.5315C22.0765 21.6744 23.1682 21.0907 24.3567 20.8541C25.5452 20.6176 26.7772 20.7388 27.8969 21.2024C29.0165 21.6661 29.9735 22.4513 30.6468 23.4589C31.3201 24.4665 31.6795 25.6511 31.6795 26.863C31.6777 28.487 31.032 30.044 29.8839 31.1925C28.7357 32.341 27.179 32.9874 25.555 32.9897ZM27.6561 35.2409C31.0196 35.2409 34.0123 36.4636 36.1156 38.7191L41.898 44.4398C42.0082 44.5508 42.1408 44.6372 42.2869 44.6931C42.433 44.7491 42.5894 44.7733 42.7455 44.7642C42.9013 44.7565 43.0538 44.7164 43.1933 44.6464C43.3327 44.5765 43.4561 44.4783 43.5555 44.3581L49.8522 36.7439C50.1076 36.4414 50.4693 36.2486 50.8627 36.205C51.2561 36.1615 51.6512 36.2706 51.9665 36.5099C52.136 36.6315 52.2788 36.7864 52.3862 36.9652C52.4936 37.144 52.5632 37.3428 52.591 37.5496C52.6186 37.7563 52.6038 37.9665 52.5473 38.1672C52.4907 38.368 52.3937 38.555 52.2623 38.7169L43.7828 49.2158C43.643 49.3894 43.4686 49.532 43.2707 49.6346C43.0728 49.7372 42.8558 49.7976 42.6333 49.8119C42.4109 49.8262 42.1879 49.7942 41.9785 49.7178C41.7691 49.6414 41.5779 49.5223 41.4169 49.3681L35.6146 43.8152C35.4557 43.6622 35.2552 43.5594 35.0382 43.5196C34.8213 43.4798 34.5974 43.5047 34.3945 43.5913C34.1916 43.678 34.0187 43.8224 33.8973 44.0066C33.776 44.1909 33.7116 44.4068 33.7122 44.6274V54.0668H15.9456V42.4358C15.9479 40.5279 16.707 38.6989 18.0563 37.35C19.4056 36.0011 21.2348 35.2426 23.1427 35.2409H27.6561ZM37.1176 79.8626V64.3163H52.1983V77.3378C52.1993 77.4044 52.2059 77.4709 52.2181 77.5364C51.9437 78.2879 51.7607 79.0696 51.673 79.8648L37.1176 79.8626ZM61.6929 70.9021C60.3406 70.9019 59.0021 71.1745 57.7575 71.7035C56.5129 72.2325 55.3878 73.0071 54.4494 73.9809V64.3163H72.088V70.9021H61.6929ZM72.2249 54.0624H35.9744V47.2604L39.8587 50.9902C40.2439 51.3606 40.7022 51.6463 41.2043 51.8292C41.7064 52.012 42.2411 52.0878 42.7742 52.0518C43.3076 52.0175 43.8281 51.8731 44.3029 51.6277C44.7777 51.3823 45.1965 51.0413 45.533 50.6261L54.0146 40.1272C54.6294 39.3673 54.925 38.3984 54.8394 37.4247C54.7538 36.451 54.2935 35.5486 53.5556 34.9076L58.9761 22.9609C59.0448 22.8254 59.0854 22.6774 59.0954 22.5258C59.1054 22.3742 59.0846 22.2221 59.0343 22.0788C58.9839 21.9354 58.9051 21.8037 58.8025 21.6916C58.6999 21.5796 58.5756 21.4894 58.4373 21.4267C58.2989 21.3639 58.1493 21.3298 57.9973 21.3264C57.8454 21.323 57.6944 21.3504 57.5534 21.4069C57.4124 21.4635 57.2842 21.548 57.1767 21.6554C57.0692 21.7628 56.9846 21.8908 56.9279 22.0318L51.5075 33.974C50.874 33.8937 50.2306 33.9751 49.637 34.2105C49.0435 34.4459 48.5192 34.8277 48.113 35.3203L42.5955 41.9856L37.74 37.1499C35.8974 35.2031 33.5002 33.8708 30.8739 33.334C32.2154 32.2339 33.1828 30.7448 33.6427 29.072C34.1026 27.3992 34.0323 25.6249 33.4417 23.9936C32.851 22.3624 31.769 20.9544 30.3447 19.9638C28.9205 18.9732 27.224 18.4486 25.4892 18.4624C23.7543 18.4763 22.0665 19.0277 20.6582 20.0409C19.2498 21.0541 18.1904 22.4791 17.6258 24.1196C17.0612 25.76 17.0192 27.5352 17.5057 29.2005C17.9922 30.8658 18.9831 32.3393 20.342 33.4179C18.4173 34.0174 16.7344 35.216 15.5387 36.8389C14.3429 38.4619 13.6968 40.4243 13.6944 42.4402V54.0668H3.24189V6.3442C3.24306 5.49368 3.5816 4.67835 4.18322 4.07715C4.78484 3.47594 5.60039 3.13797 6.45092 3.13738H86.6081C87.03 3.13651 87.4479 3.21879 87.838 3.3795C88.2281 3.54021 88.5826 3.77622 88.8815 4.07403C89.1803 4.37184 89.4175 4.72561 89.5796 5.11514C89.7416 5.50467 89.8254 5.92231 89.8259 6.3442V10.6016C86.6251 11.1333 83.6723 12.6576 81.3849 14.9589C79.0975 17.2603 77.5911 20.2223 77.0788 23.4263C76.5665 26.6303 77.074 29.9144 78.5297 32.8142C79.9855 35.7141 82.3157 38.0831 85.1912 39.5865C81.8196 40.4052 78.7754 42.227 76.4605 44.8114C74.1456 47.3958 72.6688 50.6214 72.2249 54.0624Z" fill="#0E32AE"/>
<path d="M74.2971 9.35455H44.3609C44.0624 9.35455 43.7761 9.47314 43.565 9.68423C43.3539 9.89532 43.2354 10.1816 43.2354 10.4801C43.2354 10.7787 43.3539 11.065 43.565 11.276C43.7761 11.4871 44.0624 11.6057 44.3609 11.6057H74.2971C74.5956 11.6057 74.8819 11.4871 75.093 11.276C75.3041 11.065 75.4227 10.7787 75.4227 10.4801C75.4227 10.1816 75.3041 9.89532 75.093 9.68423C74.8819 9.47314 74.5956 9.35455 74.2971 9.35455Z" fill="#0E32AE"/>
<path d="M74.2971 15.5585H69.9625C69.664 15.5585 69.3777 15.6771 69.1666 15.8882C68.9555 16.0993 68.8369 16.3856 68.8369 16.6841C68.8369 16.9826 68.9555 17.2689 69.1666 17.48C69.3777 17.6911 69.664 17.8097 69.9625 17.8097H74.2883C74.4361 17.8097 74.5825 17.7806 74.719 17.724C74.8556 17.6675 74.9797 17.5845 75.0842 17.48C75.1887 17.3755 75.2716 17.2514 75.3282 17.1149C75.3848 16.9783 75.4139 16.8319 75.4139 16.6841C75.4139 16.5363 75.3848 16.3899 75.3282 16.2534C75.2716 16.1168 75.1887 15.9927 75.0842 15.8882C74.9797 15.7837 74.8556 15.7008 74.719 15.6442C74.5825 15.5876 74.4361 15.5585 74.2883 15.5585H74.2971Z" fill="#0E32AE"/>
<path d="M63.1207 16.6841C63.1207 16.3856 63.0021 16.0993 62.791 15.8882C62.5799 15.6771 62.2936 15.5585 61.9951 15.5585H44.3609C44.0624 15.5585 43.7761 15.6771 43.565 15.8882C43.3539 16.0993 43.2354 16.3856 43.2354 16.6841C43.2354 16.9826 43.3539 17.2689 43.565 17.48C43.7761 17.6911 44.0624 17.8097 44.3609 17.8097H61.9951C62.2936 17.8097 62.5799 17.6911 62.791 17.48C63.0021 17.2689 63.1207 16.9826 63.1207 16.6841Z" fill="#0E32AE"/>
<path d="M74.2975 21.7625H63.3219C63.0234 21.7625 62.7371 21.8811 62.526 22.0922C62.3149 22.3033 62.1963 22.5896 62.1963 22.8881C62.1963 23.1866 62.3149 23.4729 62.526 23.684C62.7371 23.8951 63.0234 24.0137 63.3219 24.0137H74.2975C74.596 24.0137 74.8823 23.8951 75.0934 23.684C75.3044 23.4729 75.423 23.1866 75.423 22.8881C75.423 22.5896 75.3044 22.3033 75.0934 22.0922C74.8823 21.8811 74.596 21.7625 74.2975 21.7625Z" fill="#0E32AE"/>
<path d="M52.7322 21.7625H44.3609C44.0624 21.7625 43.7761 21.8811 43.565 22.0922C43.3539 22.3033 43.2354 22.5896 43.2354 22.8881C43.2354 23.1866 43.3539 23.4729 43.565 23.684C43.7761 23.8951 44.0624 24.0137 44.3609 24.0137H52.7344C53.033 24.0137 53.3192 23.8951 53.5303 23.684C53.7414 23.4729 53.86 23.1866 53.86 22.8881C53.86 22.5896 53.7414 22.3033 53.5303 22.0922C53.3192 21.8811 53.033 21.7625 52.7344 21.7625H52.7322Z" fill="#0E32AE"/>
</svg>
