<svg width="110" height="86" viewBox="0 0 110 86" fill="none" xmlns="http://www.w3.org/2000/svg">
<path d="M69.3034 14.7839H93.4459C93.7524 14.7839 94.0462 14.6622 94.2629 14.4455C94.4796 14.2288 94.6014 13.9349 94.6014 13.6284C94.6014 13.322 94.4796 13.0281 94.2629 12.8114C94.0462 12.5947 93.7524 12.473 93.4459 12.473H69.3034C68.997 12.473 68.7031 12.5947 68.4864 12.8114C68.2697 13.0281 68.1479 13.322 68.1479 13.6284C68.1479 13.9349 68.2697 14.2288 68.4864 14.4455C68.7031 14.6622 68.997 14.7839 69.3034 14.7839Z" fill="#0E32AE"/>
<path d="M93.4455 18.7194H80.2097C79.9032 18.7194 79.6093 18.8411 79.3926 19.0578C79.1759 19.2745 79.0542 19.5684 79.0542 19.8748C79.0542 20.1813 79.1759 20.4752 79.3926 20.6919C79.6093 20.9086 79.9032 21.0303 80.2097 21.0303H93.4455C93.7519 21.0303 94.0458 20.9086 94.2625 20.6919C94.4792 20.4752 94.6009 20.1813 94.6009 19.8748C94.6009 19.5684 94.4792 19.2745 94.2625 19.0578C94.0458 18.8411 93.7519 18.7194 93.4455 18.7194Z" fill="#0E32AE"/>
<path d="M69.3034 21.0235H73.5401C73.6919 21.0235 73.8421 20.9936 73.9823 20.9355C74.1225 20.8774 74.2499 20.7923 74.3572 20.685C74.4644 20.5777 74.5496 20.4504 74.6076 20.3102C74.6657 20.17 74.6956 20.0197 74.6956 19.868C74.6956 19.7163 74.6657 19.566 74.6076 19.4258C74.5496 19.2856 74.4644 19.1583 74.3572 19.051C74.2499 18.9437 74.1225 18.8585 73.9823 18.8005C73.8421 18.7424 73.6919 18.7125 73.5401 18.7125H69.3034C68.997 18.7125 68.7031 18.8343 68.4864 19.051C68.2697 19.2676 68.1479 19.5615 68.1479 19.868C68.1479 20.1744 68.2697 20.4683 68.4864 20.685C68.7031 20.9017 68.997 21.0235 69.3034 21.0235Z" fill="#0E32AE"/>
<path d="M93.4457 24.9657H88.8918C88.5853 24.9657 88.2915 25.0874 88.0748 25.3041C87.8581 25.5208 87.7363 25.8147 87.7363 26.1212C87.7363 26.4276 87.8581 26.7215 88.0748 26.9382C88.2915 27.1549 88.5853 27.2766 88.8918 27.2766H93.4457C93.7522 27.2766 94.0461 27.1549 94.2627 26.9382C94.4794 26.7215 94.6012 26.4276 94.6012 26.1212C94.6012 25.8147 94.4794 25.5208 94.2627 25.3041C94.0461 25.0874 93.7522 24.9657 93.4457 24.9657Z" fill="#0E32AE"/>
<path d="M69.3034 27.2766H84.6575C84.964 27.2766 85.2579 27.1549 85.4746 26.9382C85.6913 26.7215 85.813 26.4276 85.813 26.1212C85.813 25.8147 85.6913 25.5208 85.4746 25.3041C85.2579 25.0874 84.964 24.9657 84.6575 24.9657H69.3034C68.997 24.9657 68.7031 25.0874 68.4864 25.3041C68.2697 25.5208 68.1479 25.8147 68.1479 26.1212C68.1479 26.4276 68.2697 26.7215 68.4864 26.9382C68.7031 27.1549 68.997 27.2766 69.3034 27.2766Z" fill="#0E32AE"/>
<path d="M105.866 72.8247H102.27V27.3513C103.695 24.959 104.452 22.2286 104.463 19.4443C104.463 9.1878 94.107 0.843506 81.3765 0.843506C76.0885 0.843506 71.2106 2.28218 67.3138 4.69507C67.2625 4.69161 67.211 4.69161 67.1597 4.69507H16.3848C14.0641 4.69746 11.8391 5.62026 10.198 7.26101C8.55678 8.90176 7.63341 11.1265 7.63041 13.4472V72.8292H4.13455C3.24682 72.8298 2.39554 73.1824 1.7674 73.8097C1.13925 74.437 0.785491 75.2878 0.783691 76.1755V78.2939C0.78609 80.1136 1.51019 81.8581 2.79714 83.1446C4.0841 84.4311 5.82881 85.1547 7.64853 85.1564H102.352C104.171 85.1547 105.916 84.4311 107.203 83.1446C108.49 81.8581 109.214 80.1136 109.216 78.2939V76.1755C109.216 75.287 108.863 74.435 108.234 73.8068C107.606 73.1785 106.754 72.8253 105.866 72.8247ZM55.9675 65.765C56.6098 65.7627 57.2382 65.9512 57.7733 66.3064C58.3084 66.6616 58.726 67.1677 58.9732 67.7604C59.2204 68.3532 59.2862 69.006 59.1621 69.6361C59.038 70.2663 58.7297 70.8455 58.2762 71.3002C57.8227 71.755 57.2444 72.065 56.6146 72.1908C55.9848 72.3167 55.3318 72.2527 54.7383 72.0072C54.1449 71.7616 53.6377 71.3454 53.2809 70.8113C52.9242 70.2773 52.734 69.6493 52.7345 69.0071C52.7363 68.1493 53.0772 67.3271 53.6828 66.7197C54.2885 66.1124 55.1098 65.7692 55.9675 65.765ZM60.4738 65.765H99.9592V72.8247H59.9981C60.8883 71.8881 61.4231 70.6699 61.51 69.3807C61.5969 68.0915 61.2304 66.8125 60.4738 65.765ZM102.152 19.4375C102.152 28.4184 92.8315 35.7273 81.3765 35.7273C76.7886 35.7273 72.4386 34.5741 68.7955 32.3946C68.6163 32.2865 68.4111 32.2294 68.2019 32.2292C68.1559 32.2258 68.1097 32.2258 68.0637 32.2292L58.3215 33.4005L62.377 27.2969C62.496 27.1183 62.5627 26.9098 62.5695 26.6952C62.5763 26.4806 62.523 26.2684 62.4155 26.0826C61.2347 24.0633 60.6094 21.7675 60.603 19.4284C60.603 10.4452 69.9238 3.13858 81.381 3.13858C92.8383 3.13858 102.152 10.4611 102.152 19.4375ZM16.3848 7.00147H64.2302C60.5373 10.298 58.2875 14.6638 58.2875 19.4443C58.2886 21.943 58.8974 24.404 60.0615 26.615L55.0001 34.2207C54.8782 34.4048 54.8115 34.62 54.8079 34.8408C54.8043 35.0615 54.8639 35.2788 54.9797 35.4668C55.0933 35.6567 55.2601 35.8092 55.4594 35.9055C55.6587 36.0017 55.8818 36.0374 56.1012 36.0083L67.9481 34.5854C71.879 36.8511 76.5099 38.0451 81.372 38.0451C88.9845 38.0451 95.7474 35.0612 99.9501 30.4688V63.454H37.4483V49.7243H53.3575C54.5449 49.7243 55.6836 49.2527 56.5232 48.4131C57.3627 47.5735 57.8344 46.4348 57.8344 45.2475C57.8344 44.0601 57.3627 42.9214 56.5232 42.0818C55.6836 41.2423 54.5449 40.7706 53.3575 40.7706H34.1269C35.4767 39.5539 36.4243 37.9552 36.8438 36.187C37.2634 34.4189 37.1349 32.5649 36.4756 30.8715C35.8163 29.1781 34.6573 27.7253 33.1526 26.7063C31.6479 25.6874 29.8688 25.1503 28.0516 25.1666C26.2344 25.1829 24.4652 25.7518 22.9791 26.7976C21.4929 27.8434 20.3602 29.3167 19.7313 31.0217C19.1025 32.7267 19.0074 34.5827 19.4585 36.343C19.9097 38.1034 20.8859 39.6848 22.2573 40.8771C19.8577 41.2307 17.6649 42.4344 16.0784 44.2692C14.492 46.1039 13.6173 48.4475 13.6139 50.873V63.454H9.94135V13.4426C9.94375 11.7347 10.6234 10.0974 11.8314 8.8899C13.0393 7.6824 14.6768 7.00327 16.3848 7.00147ZM20.336 51.888C20.0296 51.888 19.7357 52.0098 19.519 52.2265C19.3023 52.4431 19.1806 52.737 19.1806 53.0435V63.454H15.9249V50.873C15.9273 48.8073 16.7489 46.8269 18.2096 45.3663C19.6703 43.9056 21.6507 43.0839 23.7163 43.0815H53.3575C53.932 43.0815 54.4829 43.3097 54.8891 43.7159C55.2953 44.1221 55.5235 44.673 55.5235 45.2475C55.5235 45.8219 55.2953 46.3728 54.8891 46.779C54.4829 47.1852 53.932 47.4134 53.3575 47.4134H36.2928C35.9864 47.4134 35.6925 47.5351 35.4758 47.7518C35.2591 47.9685 35.1374 48.2624 35.1374 48.5689V63.454H21.4892V53.0435C21.4892 52.7374 21.3678 52.4439 21.1516 52.2273C20.9354 52.0106 20.6421 51.8886 20.336 51.888ZM28.1321 40.7706C26.8188 40.7702 25.5351 40.3803 24.4434 39.6504C23.3516 38.9204 22.5009 37.8832 21.9986 36.6697C21.4963 35.4563 21.3652 34.1212 21.6216 32.8332C21.8781 31.5452 22.5108 30.3622 23.4395 29.4337C24.3683 28.5052 25.5516 27.873 26.8396 27.6169C28.1277 27.3609 29.4628 27.4925 30.6761 27.9952C31.8893 28.4979 32.9263 29.349 33.6559 30.441C34.3855 31.533 34.7749 32.8168 34.7749 34.1301C34.7725 35.8913 34.0714 37.5796 32.8256 38.8246C31.5798 40.0695 29.891 40.7694 28.1298 40.7706H28.1321ZM9.94135 65.765H51.4635C50.7071 66.8124 50.3404 68.0911 50.4269 69.3802C50.5134 70.6693 51.0475 71.8876 51.937 72.8247H9.94135V65.765ZM106.91 78.2939C106.908 79.5017 106.427 80.6594 105.573 81.5128C104.718 82.3662 103.559 82.8455 102.352 82.8455H7.64853C6.44152 82.8443 5.28426 82.3645 4.43056 81.5112C3.57686 80.6579 3.09643 79.5009 3.09463 78.2939V76.1755C3.09523 75.8999 3.20498 75.6357 3.39988 75.4408C3.59477 75.2459 3.85893 75.1362 4.13455 75.1356H105.861C106.137 75.1362 106.401 75.2459 106.596 75.4408C106.791 75.6357 106.9 75.8999 106.901 76.1755L106.91 78.2939Z" fill="#0E32AE"/>
</svg>
