<svg width="76" height="86" viewBox="0 0 76 86" fill="none" xmlns="http://www.w3.org/2000/svg">
<path d="M75.9442 77.6443C75.9201 77.392 75.8091 77.161 75.6356 77.002C75.462 76.8429 75.2401 76.769 75.0187 76.7964C62.4312 78.3468 53.2634 78.9593 46.5883 79.0454C46.5631 77.93 46.2442 76.8489 45.6729 75.9427C44.057 73.2324 40.1299 70.7154 34.9834 71.1977C31.9028 71.4868 28.1773 72.8132 27.2753 75.0412C27.1158 75.4167 27.0505 75.8351 27.0867 76.2503C27.1229 76.6654 27.259 77.0611 27.4802 77.3936C28.9634 79.7459 34.7029 80.9499 44.2015 80.992C42.9535 82.5577 40.135 83.5722 36.2583 83.8133C23.7715 84.5923 8.65092 78.6166 3.2524 76.2681L16.0483 70.968L16.0651 70.9585C16.0911 70.9464 16.1163 70.9323 16.1406 70.9164C16.1663 70.904 16.191 70.8893 16.2146 70.8723C16.2347 70.857 16.2532 70.8398 16.2717 70.8226C16.2974 70.8019 16.3221 70.7795 16.3456 70.7556C16.3456 70.7556 16.3456 70.7556 16.3556 70.746L61.1882 19.6482L64.912 15.4047C66.3112 13.8103 67.2938 11.412 67.5441 8.98686C67.6099 8.3594 67.6251 7.72639 67.5895 7.09577L68.1438 7.72741C68.588 8.23329 68.9403 8.83395 69.1807 9.49506C69.4211 10.1562 69.5449 10.8648 69.5449 11.5804C69.5449 12.296 69.4211 13.0047 69.1807 13.6658C68.9403 14.3269 68.588 14.9275 68.1438 15.4334L54.5937 30.8742C54.476 31.008 54.3957 31.1787 54.3632 31.3646C54.3307 31.5504 54.3473 31.7431 54.411 31.9182C54.4747 32.0933 54.5826 32.2429 54.721 32.348C54.8593 32.4532 55.022 32.5091 55.1883 32.5088C55.4109 32.5082 55.6241 32.407 55.7813 32.2274L69.3313 16.7867C69.9314 16.1031 70.4075 15.2914 70.7322 14.3981C71.057 13.5048 71.2242 12.5474 71.2242 11.5804C71.2242 10.6135 71.057 9.65602 70.7322 8.76271C70.4075 7.86941 69.9314 7.05778 69.3313 6.37417L66.0677 2.6628C65.9871 2.55752 65.8997 2.45417 65.814 2.35464L65.7183 2.24553C62.7453 -1.14427 57.1166 0.0137353 54.2578 3.27147L50.5356 7.51495L5.70139 58.6051L5.69131 58.6185C5.67115 58.6434 5.65436 58.6683 5.63588 58.6951C5.6174 58.7219 5.60229 58.7429 5.58717 58.7678C5.57465 58.7919 5.56343 58.8168 5.55358 58.8425C5.5379 58.874 5.52388 58.9066 5.51158 58.9401V58.9535L0.0996313 75.9006C0.0861101 75.9451 0.0748928 75.9905 0.0660374 76.0365C0.0576895 76.0896 0.0526379 76.1433 0.0509202 76.1973C0.0500839 76.2126 0.0500839 76.2279 0.0509202 76.2432C0.0508245 76.2881 0.0541968 76.3329 0.0609982 76.3772V76.4116C0.071068 76.4656 0.0845407 76.5187 0.101311 76.5705L0.113069 76.5992C0.128547 76.6405 0.147091 76.6802 0.168498 76.7179L0.190334 76.76C0.212453 76.7956 0.23658 76.8295 0.262561 76.8614C0.269329 76.8721 0.276619 76.8823 0.284397 76.8921L0.326389 76.9304C0.352297 76.9579 0.379793 76.9835 0.408694 77.0069C0.434989 77.0264 0.462497 77.0437 0.490998 77.0586C0.509464 77.0718 0.528527 77.084 0.548107 77.095C1.31572 77.4682 18.6283 85.7867 33.9033 85.7867C34.7219 85.7867 35.5338 85.7618 36.3389 85.7121C42.9653 85.2967 45.337 82.9558 46.1583 81.0647L46.1987 80.969C53.806 80.8982 63.5431 80.1326 75.1985 78.6989C75.3082 78.6856 75.4146 78.6477 75.5115 78.5874C75.6084 78.5272 75.694 78.4458 75.7632 78.3478C75.8325 78.2499 75.8841 78.1373 75.9152 78.0166C75.9463 77.8959 75.9561 77.7694 75.9442 77.6443ZM55.452 4.62471C57.7146 2.04838 62.2699 1.01479 64.5358 3.59686L64.6315 3.70596C65.6545 4.87163 66.0979 6.67085 65.8829 8.77057C65.6763 10.7823 64.8751 12.7595 63.7312 14.0591L60.602 17.625L52.3161 8.19061L55.452 4.62471ZM51.1353 9.54385L59.4144 18.9783L15.761 68.7152L7.48186 59.2808L51.1353 9.54385ZM6.63362 61.0207L14.2342 69.6818L2.2933 74.6277L6.63362 61.0207ZM28.8458 76.2757C28.7978 76.2192 28.7673 76.1463 28.7591 76.0682C28.751 75.99 28.7655 75.911 28.8004 75.8432C29.2355 74.7675 31.881 73.4104 35.1211 73.1061C35.499 73.0697 35.8669 73.0525 36.2297 73.0525C40.1283 73.0525 43.0946 75.0259 44.2922 77.0184C44.6708 77.6136 44.8875 78.3225 44.9154 79.0569C31.1722 79.0511 29.0978 76.672 28.8458 76.2757Z" fill="#0E32AE"/>
</svg>
