<svg width="85" height="77" viewBox="0 0 85 77" fill="none" xmlns="http://www.w3.org/2000/svg">
<path d="M29.2215 33.0673H20.6401V25.4459C20.6401 25.109 20.4895 24.7859 20.2212 24.5477C19.953 24.3095 19.5892 24.1757 19.2099 24.1757C16.9469 24.1757 14.7348 24.7716 12.8532 25.8882C10.9716 27.0048 9.50503 28.5919 8.63903 30.4487C7.77302 32.3055 7.54644 34.3488 7.98792 36.32C8.42941 38.2912 9.51914 40.1018 11.1193 41.523C12.7195 42.9441 14.7582 43.9119 16.9777 44.304C19.1972 44.6961 21.4978 44.4949 23.5885 43.7258C25.6792 42.9567 27.4662 41.6542 28.7234 39.9831C29.9807 38.312 30.6517 36.3473 30.6517 34.3375C30.6517 34.0006 30.5011 33.6775 30.2328 33.4393C29.9646 33.2011 29.6008 33.0673 29.2215 33.0673ZM19.2099 41.9588C17.0569 41.9606 14.9817 41.2435 13.3962 39.9497C11.8108 38.656 10.8308 36.8803 10.6508 34.9748C10.4707 33.0693 11.1038 31.1733 12.4243 29.663C13.7449 28.1527 15.6564 27.1385 17.7797 26.8215V34.3375C17.7797 34.6744 17.9304 34.9975 18.1986 35.2357C18.4668 35.4739 18.8306 35.6077 19.2099 35.6077H27.6726C27.3319 37.3827 26.2957 38.9936 24.7471 40.1558C23.1986 41.318 21.2373 41.9566 19.2099 41.9588Z" fill="#0E32AE"/>
<path d="M23.5005 20.3646C23.1212 20.3646 22.7574 20.4985 22.4892 20.7367C22.221 20.9749 22.0703 21.298 22.0703 21.6349V30.5265C22.0703 30.8634 22.221 31.1865 22.4892 31.4247C22.7574 31.6629 23.1212 31.7967 23.5005 31.7967H33.5121C33.8914 31.7967 34.2552 31.6629 34.5235 31.4247C34.7917 31.1865 34.9424 30.8634 34.9424 30.5265C34.9389 27.8323 33.7324 25.2494 31.5874 23.3443C29.4423 21.4392 26.5341 20.3676 23.5005 20.3646ZM24.9308 29.2563V23.0105C26.6866 23.2771 28.3061 24.0211 29.5657 25.1398C30.8253 26.2585 31.663 27.6968 31.9632 29.2563H24.9308Z" fill="#0E32AE"/>
<path d="M7.76807 48.3099H29.2215V50.8516H7.76807V48.3099Z" fill="#0E32AE"/>
<path d="M7.76807 53.3909H29.2215V55.9325H7.76807V53.3909Z" fill="#0E32AE"/>
<path d="M7.76807 58.4719H10.6285V61.0133H7.76807V58.4719Z" fill="#0E32AE"/>
<path d="M13.4888 58.4719H29.2212V61.0133H13.4888V58.4719Z" fill="#0E32AE"/>
<path d="M83.5699 35.6078H66.4072V24.887L75.9325 27.9101C76.1484 27.9813 76.3805 28.0049 76.609 27.9788C76.8374 27.9526 77.0553 27.8776 77.2438 27.7601C77.4324 27.6427 77.586 27.4863 77.6914 27.3044C77.7968 27.1225 77.8509 26.9207 77.849 26.7161V19.0947H79.2792C80.4172 19.0947 81.5085 18.6932 82.3132 17.9785C83.1178 17.2639 83.5699 16.2946 83.5699 15.2839C83.5699 14.2733 83.1178 13.304 82.3132 12.5893C81.5085 11.8747 80.4172 11.4732 79.2792 11.4732H77.849V3.85174C77.8486 3.64833 77.7939 3.4479 77.6895 3.26685C77.5851 3.08581 77.4339 2.9293 77.2483 2.81014C77.0574 2.69556 76.8391 2.62211 76.6107 2.59565C76.3823 2.56919 76.15 2.59044 75.9325 2.65772L66.4072 5.68089V2.5815C66.4049 1.90834 66.1028 1.26333 65.5669 0.787327C65.0309 0.311329 64.3047 0.0430261 63.5467 0.0410156H17.7794C17.4003 0.0435234 17.0367 0.175413 16.764 0.409386L1.03147 14.3821C0.768023 14.6243 0.619523 14.9472 0.616699 15.2839V69.9044C0.616699 70.2412 0.767383 70.5643 1.0356 70.8026C1.30382 71.0408 1.66761 71.1746 2.04693 71.1746H33.5119V74.9853C33.5119 75.3222 33.6626 75.6453 33.9308 75.8835C34.1991 76.1217 34.5628 76.2556 34.9422 76.2556H83.5699C83.9492 76.2556 84.313 76.1217 84.5812 75.8835C84.8494 75.6453 85.0001 75.3222 85.0001 74.9853V36.878C85.0001 36.5412 84.8494 36.2181 84.5812 35.9798C84.313 35.7416 83.9492 35.6078 83.5699 35.6078ZM77.849 14.0137H79.2792C79.6585 14.0137 80.0223 14.1475 80.2905 14.3857C80.5588 14.6239 80.7094 14.947 80.7094 15.2839C80.7094 15.6208 80.5588 15.9439 80.2905 16.1821C80.0223 16.4203 79.6585 16.5542 79.2792 16.5542H77.849V14.0137ZM74.9885 5.65549V24.9124L57.8258 19.4757V11.0921L74.9885 5.65549ZM16.3492 4.37254V14.0137H5.49377L16.3492 4.37254ZM33.5119 36.878V68.6341H3.47715V16.5542H17.7794C18.1587 16.5542 18.5225 16.4203 18.7908 16.1821C19.059 15.9439 19.2097 15.6208 19.2097 15.2839V2.5815H63.5467V6.58276L56.1524 8.93271H44.9538C44.5744 8.93271 44.2106 9.06654 43.9424 9.30476C43.6742 9.54298 43.5235 9.86607 43.5235 10.203V10.4824L38.8896 11.5113C38.5795 11.5794 38.304 11.7377 38.107 11.961C37.91 12.1843 37.8029 12.4598 37.8026 12.7434V17.8244C37.8029 18.1081 37.91 18.3835 38.107 18.6068C38.304 18.8301 38.5795 18.9885 38.8896 19.0565L43.5235 20.0854V20.3649C43.5235 20.7018 43.6742 21.0249 43.9424 21.2631C44.2106 21.5013 44.5744 21.6351 44.9538 21.6351H46.384V31.7971C46.384 32.134 46.5347 32.4571 46.8029 32.6953C47.0711 32.9335 47.4349 33.0673 47.8142 33.0673H53.5351C53.8872 33.0692 54.2275 32.9544 54.4893 32.7453C54.7512 32.5363 54.9158 32.248 54.951 31.9368L56.2382 21.6605L63.5467 23.9851V35.6078H34.9422C34.5628 35.6078 34.1991 35.7416 33.9308 35.9798C33.6626 36.2181 33.5119 36.5412 33.5119 36.878ZM46.384 19.0947V11.4732H54.9653V19.0947H46.384ZM53.3635 21.6351L52.2479 30.5268H49.2444V21.6351H53.3635ZM43.5235 13.0991V17.4687L40.6631 16.8336V13.7342L43.5235 13.0991ZM82.1397 73.7151H36.3724V45.7697H82.1397V73.7151ZM82.1397 43.2293H36.3724V38.1483H82.1397V43.2293Z" fill="#0E32AE"/>
<path d="M39.2329 39.4185H42.0934V41.9598H39.2329V39.4185Z" fill="#0E32AE"/>
<path d="M44.9536 39.4185H47.8141V41.9598H44.9536V39.4185Z" fill="#0E32AE"/>
<path d="M50.6748 39.4185H53.5353V41.9598H50.6748V39.4185Z" fill="#0E32AE"/>
<path d="M73.5583 67.3637V50.8503C73.5583 50.5134 73.4076 50.1903 73.1394 49.9521C72.8711 49.7139 72.5074 49.5801 72.128 49.5801H66.4071C66.0278 49.5801 65.664 49.7139 65.3958 49.9521C65.1276 50.1903 64.9769 50.5134 64.9769 50.8503V67.3637H63.5467V55.9314C63.5467 55.5945 63.396 55.2714 63.1278 55.0332C62.8595 54.795 62.4958 54.6611 62.1164 54.6611H56.3955C56.0162 54.6611 55.6524 54.795 55.3842 55.0332C55.116 55.2714 54.9653 55.5945 54.9653 55.9314V67.3637H53.5351V59.7422C53.5351 59.4053 53.3844 59.0822 53.1162 58.844C52.848 58.6057 52.4842 58.4719 52.1049 58.4719H46.3839C46.0046 58.4719 45.6408 58.6057 45.3726 58.844C45.1044 59.0822 44.9537 59.4053 44.9537 59.7422V67.3637H42.0933V69.9043H76.4187V67.3637H73.5583ZM50.6746 67.3637H47.8142V61.0124H50.6746V67.3637ZM60.6862 67.3637H57.8258V57.2016H60.6862V67.3637ZM70.6978 67.3637H67.8374V52.1206H70.6978V67.3637Z" fill="#0E32AE"/>
</svg>
