<svg width="112" height="96" viewBox="0 0 112 96" fill="none" xmlns="http://www.w3.org/2000/svg">
<path d="M102.886 17.8477C102.632 17.0771 101.725 16.6343 100.855 16.8599C99.9878 17.0847 99.49 17.8917 99.7431 18.6623C100.1 19.7471 100.281 20.875 100.281 22.015C100.281 24.1316 99.6519 26.2111 98.4612 28.0286C97.3029 29.7962 95.6434 31.2853 93.6617 32.3345L92.9764 32.6963C92.4803 32.959 92.1769 33.4329 92.1769 33.9454V35.7811H88.3507V29.8727C90.1048 29.3065 91.3646 27.8144 91.3646 26.062V22.8879C91.3646 20.6509 89.3164 18.8311 86.7995 18.8311H86.6298C84.1129 18.8311 82.0647 20.6509 82.0647 22.8879V26.062C82.0647 27.8144 83.3236 29.3065 85.0777 29.8719V35.7811H81.2524V33.9454C81.2524 33.4329 80.9481 32.959 80.4529 32.6963L79.7676 32.3345C77.7851 31.2853 76.1256 29.7962 74.9681 28.0286C73.7774 26.2111 73.1475 24.1316 73.1475 22.015C73.1475 15.3913 79.2332 10.003 86.7142 10.003C90.2651 10.003 93.6259 11.2149 96.1769 13.4163C96.8247 13.9749 97.8612 13.9613 98.491 13.386C99.1209 12.8107 99.1056 11.8902 98.4569 11.3307C95.2922 8.60023 91.1217 7.09607 86.7142 7.09607C77.4288 7.09607 69.8745 13.7887 69.8745 22.015C69.8745 24.6441 70.6578 27.2293 72.1383 29.4904C73.5532 31.6501 75.5707 33.4737 77.9794 34.7712V36.0173C77.1092 36.395 76.5074 37.1861 76.5074 38.1028V44.7485C76.5074 46.0278 77.6794 47.0695 79.1199 47.0695H81.5533V49.1126C81.5533 50.507 82.8293 51.641 84.3993 51.641H89.03C90.5992 51.641 91.8769 50.507 91.8769 49.1126V47.0695H94.3094C95.7499 47.0695 96.9227 46.0278 96.9227 44.7485V38.1028C96.9227 37.1861 96.3201 36.395 95.4499 36.0173V34.7712C97.8586 33.4737 99.8761 31.6501 101.291 29.4904C102.771 27.2293 103.555 24.6441 103.555 22.015C103.554 20.5994 103.329 19.1975 102.886 17.8477ZM85.3377 22.8879C85.3377 22.2535 85.9173 21.738 86.6298 21.738H86.7995C87.512 21.738 88.0916 22.2535 88.0916 22.8879V26.062C88.0916 26.6963 87.512 27.2118 86.7995 27.2118H86.6298C85.9173 27.2118 85.3377 26.6963 85.3377 26.062V22.8879ZM88.603 48.7341H84.8254V47.0695H88.603V48.7341ZM93.6489 44.1626H79.7796V38.688H93.6489V44.1626Z" fill="#0E32AE"/>
<path d="M86.7141 5.31721C87.6185 5.31721 88.3506 4.66619 88.3506 3.86376V1.45345C88.3506 0.650268 87.6185 0 86.7141 0C85.8098 0 85.0776 0.650268 85.0776 1.45345V3.86376C85.0776 4.66619 85.8107 5.31721 86.7141 5.31721Z" fill="#0E32AE"/>
<path d="M76.7226 6.08636C76.9945 6.6261 77.5912 6.94631 78.2168 6.94631C78.4401 6.94631 78.6677 6.90544 78.885 6.8199C79.7092 6.49136 80.0792 5.63216 79.7101 4.89939L78.6003 2.69879C78.2313 1.96601 77.263 1.63823 76.438 1.96601C75.6138 2.29379 75.2438 3.15374 75.6138 3.88652L76.7226 6.08636Z" fill="#0E32AE"/>
<path d="M68.0893 9.5229L70.1154 11.1315C70.4273 11.3791 70.8177 11.5017 71.2055 11.5017C71.6555 11.5017 72.103 11.3382 72.4261 11.0172C73.0287 10.4184 72.9707 9.49944 72.2973 8.96423L70.2713 7.3556C69.5971 6.8204 68.5624 6.87188 67.9606 7.47067C67.358 8.0687 67.416 8.9877 68.0893 9.5229Z" fill="#0E32AE"/>
<path d="M63.8121 17.3854L66.4023 18.1235C66.5685 18.1704 66.7364 18.1932 66.9027 18.1932C67.5948 18.1932 68.2374 17.8002 68.4599 17.1833C68.736 16.4186 68.2621 15.6003 67.4013 15.355L64.811 14.6176C63.9501 14.3723 63.0288 14.7933 62.7526 15.5579C62.4773 16.3225 62.9512 17.1409 63.8121 17.3854Z" fill="#0E32AE"/>
<path d="M63.3445 26.119C63.4042 26.119 63.463 26.116 63.5235 26.1099L66.228 25.8486C67.1264 25.7623 67.7758 25.0452 67.6778 24.2463C67.5807 23.4482 66.7743 22.8705 65.8743 22.9583L63.1698 23.2195C62.2706 23.3059 61.6219 24.0237 61.7191 24.8218C61.8112 25.567 62.5203 26.119 63.3445 26.119Z" fill="#0E32AE"/>
<path d="M65.6276 31.6685C64.8469 32.0719 64.5827 32.9621 65.0378 33.6555C65.3421 34.1187 65.8902 34.3776 66.4536 34.3776C66.7331 34.3776 67.0161 34.314 67.2761 34.1801L69.6251 32.9644C70.4067 32.5602 70.671 31.6707 70.2158 30.9774C69.7606 30.2832 68.7591 30.0486 67.9775 30.4528L65.6276 31.6685Z" fill="#0E32AE"/>
<path d="M94.5426 6.81899C94.7599 6.90529 94.9867 6.94616 95.2108 6.94616C95.8356 6.94616 96.4331 6.62596 96.705 6.08622L97.8147 3.88564C98.1838 3.15288 97.8147 2.29293 96.9897 1.96516C96.1655 1.63738 95.1963 1.96516 94.8273 2.69792L93.7184 4.8985C93.3485 5.63127 93.7175 6.49121 94.5426 6.81899Z" fill="#0E32AE"/>
<path d="M102.222 11.5017C102.61 11.5017 103 11.3791 103.312 11.1315L105.338 9.5229C106.012 8.9877 106.07 8.0687 105.467 7.47067C104.864 6.87188 103.83 6.8204 103.156 7.3556L101.13 8.96423C100.457 9.49944 100.399 10.4184 101.002 11.0172C101.325 11.3382 101.773 11.5017 102.222 11.5017Z" fill="#0E32AE"/>
<path d="M104.968 17.1833C105.191 17.8002 105.834 18.1932 106.526 18.1932C106.691 18.1932 106.86 18.1704 107.026 18.1235L109.617 17.3854C110.477 17.1409 110.95 16.3225 110.675 15.5579C110.399 14.7933 109.477 14.3723 108.617 14.6176L106.026 15.355C105.166 15.6003 104.692 16.4186 104.968 17.1833Z" fill="#0E32AE"/>
<path d="M110.258 23.2194L107.553 22.9582C106.653 22.8688 105.847 23.4481 105.749 24.2463C105.652 25.0451 106.3 25.7622 107.2 25.8493L109.904 26.1106C109.965 26.1159 110.024 26.1189 110.083 26.1189C110.907 26.1189 111.616 25.5669 111.708 24.8225C111.806 24.0236 111.157 23.3065 110.258 23.2194Z" fill="#0E32AE"/>
<path d="M107.799 31.6683L105.45 30.4525C104.669 30.049 103.667 30.2829 103.212 30.9764C102.756 31.6705 103.021 32.56 103.802 32.9643L106.151 34.18C106.41 34.314 106.694 34.3776 106.974 34.3776C107.537 34.3776 108.085 34.1187 108.39 33.6554C108.844 32.962 108.58 32.0718 107.799 31.6683Z" fill="#0E32AE"/>
<path d="M18.2342 33.5126H34.8318C35.7353 33.5126 36.4683 32.8614 36.4683 32.0587C36.4683 31.2552 35.7353 30.6047 34.8318 30.6047H18.2342C17.3298 30.6047 16.5977 31.2552 16.5977 32.0587C16.5977 32.8614 17.3307 33.5126 18.2342 33.5126Z" fill="#0E32AE"/>
<path d="M10.5877 70.0853H42.4772C43.3815 70.0853 44.1137 69.4349 44.1137 68.6315C44.1137 67.8289 43.3815 67.1777 42.4772 67.1777H10.5877C9.68419 67.1777 8.95117 67.8289 8.95117 68.6315C8.95117 69.4349 9.68419 70.0853 10.5877 70.0853Z" fill="#0E32AE"/>
<path d="M64.044 54.5833C64.044 49.8301 59.6928 45.9634 54.3453 45.9634C48.9968 45.9634 44.6465 49.8301 44.6465 54.5833C44.6465 59.3365 48.9968 63.2033 54.3453 63.2033C59.6928 63.2033 64.044 59.3365 64.044 54.5833ZM54.3444 48.8703C57.7751 48.8703 60.5852 51.2722 60.7617 54.2836C60.4983 54.3123 60.2324 54.3305 59.9647 54.3305C56.5341 54.3305 53.7231 51.9278 53.5483 48.9164C53.8091 48.8869 54.0751 48.8703 54.3444 48.8703ZM47.9195 54.5833C47.9195 52.7521 48.8954 51.1201 50.4075 50.0739C51.1882 54.1352 55.1754 57.2374 59.9647 57.2374C59.9878 57.2374 60.0108 57.2358 60.0338 57.2358C58.9564 59.0534 56.8119 60.2964 54.3444 60.2964C50.8021 60.2964 47.9195 57.7332 47.9195 54.5833Z" fill="#0E32AE"/>
<path d="M93.9493 77.5289L85.6637 73.5176C84.5616 72.9839 82.7837 72.5819 81.5282 72.5819H53.0659V67.9657C53.4904 67.9839 53.9166 67.996 54.3444 67.996C64.0858 67.996 73.1539 63.3284 78.0114 55.8151C78.5023 55.0559 78.5023 54.1119 78.0114 53.3511C73.1548 45.8386 64.0858 41.1717 54.3444 41.1717C53.9166 41.1717 53.4904 41.1838 53.0659 41.2012V23.1422C53.0659 21.8069 51.842 20.7198 50.3384 20.7198H20.2925C19.3882 20.7198 18.656 21.3709 18.656 22.1733C18.656 22.9765 19.3882 23.6267 20.2925 23.6267H49.7929V41.5146C48.621 41.6918 47.4694 41.9363 46.3427 42.2451V40.9749C46.3427 39.6388 45.1195 38.5525 43.6152 38.5525H9.45076C7.94638 38.5525 6.72327 39.6388 6.72327 40.9749V61.2224C6.72327 62.5577 7.94638 63.6448 9.45076 63.6448H38.7764C42.0537 65.6675 45.8125 67.0505 49.7929 67.6531V72.5819H30.1124C28.8637 72.5819 27.7718 73.18 27.1743 74.0687H10.5878C9.6843 74.0687 8.95129 74.7197 8.95129 75.5221C8.95129 76.3253 9.6843 76.9756 10.5878 76.9756H26.6902V80.9604H10.5878C9.6843 80.9604 8.95129 81.6107 8.95129 82.4139C8.95129 83.2163 9.6843 83.8673 10.5878 83.8673H26.7158C26.9152 85.373 28.3617 86.5463 30.1124 86.5463H49.7929V92.1284H3.27299V23.6267H12.4374C13.3417 23.6267 14.0739 22.9765 14.0739 22.1733C14.0739 21.3709 13.3417 20.7198 12.4374 20.7198H2.72749C1.22311 20.7198 0 21.8069 0 23.1422V92.6122C0 93.9483 1.22311 95.0346 2.72749 95.0346H50.3384C51.842 95.0346 53.0659 93.9483 53.0659 92.6122V86.5463H81.5282C82.7837 86.5463 84.5616 86.1436 85.6637 85.6099L93.9502 81.5986C94.9022 81.1368 95.4486 80.3957 95.4486 79.5637C95.4486 78.7326 94.9022 77.9907 93.9493 77.5289ZM37.0445 83.6394H30.1124C30.0348 83.6394 29.9632 83.5781 29.9632 83.5115V75.6167C29.9632 75.5501 30.034 75.4888 30.1124 75.4888H37.0445V83.6394ZM9.99626 60.7379V41.4594H43.0697V43.3496C37.9462 45.4215 33.5669 48.8833 30.6792 53.3511C30.1874 54.1119 30.1874 55.0566 30.6792 55.8159C31.8528 57.6319 33.2746 59.2799 34.8914 60.7379H9.99626ZM33.6581 54.5835C37.965 48.0968 45.8653 44.0786 54.3453 44.0786C62.8244 44.0786 70.7247 48.0975 75.0325 54.5835C70.7239 61.0695 62.8235 65.0891 54.3453 65.0891C45.8662 65.0891 37.9658 61.071 33.6581 54.5835ZM79.1723 78.1103H72.4422C71.5379 78.1103 70.8057 78.7613 70.8057 79.5637C70.8057 80.3669 71.5379 81.0172 72.4422 81.0172H79.1723V83.6394H40.3175V81.0172H64.8052C65.7087 81.0172 66.4417 80.3669 66.4417 79.5637C66.4417 78.7613 65.7087 78.1103 64.8052 78.1103H40.3175V75.4888H79.1723V78.1103ZM85.9603 82.1557L84.0971 83.0581C83.7025 83.2488 83.0487 83.4335 82.4453 83.541V75.5865C83.0496 75.6947 83.7025 75.8787 84.0971 76.0694L85.9603 76.9718V82.1557ZM89.2333 80.5713V78.5569L91.3139 79.5637L89.2333 80.5713Z" fill="#0E32AE"/>
</svg>
