<svg width="76" height="94" viewBox="0 0 76 94" fill="none" xmlns="http://www.w3.org/2000/svg">
<path d="M24.7926 55.8462V60.6755C24.7923 60.8152 24.8196 60.9536 24.873 61.0827C24.9263 61.2119 25.0046 61.3292 25.1034 61.428C25.2022 61.5268 25.3195 61.6051 25.4487 61.6585C25.5778 61.7118 25.7162 61.7391 25.8559 61.7388H49.9593C50.241 61.7394 50.5113 61.6282 50.7111 61.4296C50.9108 61.231 51.0236 60.9613 51.0247 60.6796L51.0371 55.8358C54.9504 53.0516 57.8773 49.0954 59.3949 44.5387C60.9125 39.9821 60.9423 35.061 59.48 30.4864C58.0177 25.9117 55.1389 21.9203 51.2596 19.0889C47.3803 16.2574 42.7014 14.7325 37.8987 14.7344C33.0959 14.7363 28.4182 16.2649 24.5411 19.0994C20.664 21.9339 17.7884 25.9275 16.3297 30.5033C14.871 35.0791 14.9046 40.0002 16.4259 44.5557C17.9471 49.1111 20.8771 53.065 24.7926 55.8462ZM17.4133 36.3429C17.5911 32.8506 18.6585 29.4616 20.5142 26.4978C22.3699 23.5339 24.9522 21.0934 28.0161 19.408C31.08 17.7226 34.5238 16.8482 38.0206 16.8677C41.5174 16.8873 44.9512 17.8002 47.996 19.5198C51.0409 21.2393 53.5958 23.7085 55.4181 26.693C57.2405 29.6774 58.27 33.0781 58.4087 36.5722C58.5475 40.0663 57.791 43.5379 56.211 46.6575C54.6311 49.7771 52.2801 52.4411 49.3812 54.3967C49.2371 54.4933 49.1189 54.6239 49.0372 54.7769C48.9554 54.9299 48.9126 55.1007 48.9125 55.2742L48.9001 59.6101H38.9709V46.972L48.3137 38.259C48.4258 38.1668 48.5178 38.0527 48.584 37.9237C48.6503 37.7947 48.6895 37.6534 48.6992 37.5087C48.7089 37.364 48.6888 37.2188 48.6403 37.0821C48.5918 36.9454 48.5158 36.82 48.417 36.7138C48.3183 36.6075 48.1988 36.5226 48.066 36.4643C47.9332 36.4059 47.7899 36.3754 47.6448 36.3745C47.4997 36.3736 47.356 36.4024 47.2225 36.4591C47.089 36.5158 46.9685 36.5992 46.8684 36.7042L37.9076 45.056L28.9509 36.7042C28.8508 36.5992 28.7303 36.5158 28.5968 36.4591C28.4633 36.4024 28.3196 36.3736 28.1745 36.3745C28.0295 36.3754 27.8861 36.4059 27.7533 36.4643C27.6205 36.5226 27.5011 36.6075 27.4023 36.7138C27.3035 36.82 27.2275 36.9454 27.179 37.0821C27.1305 37.2188 27.1104 37.364 27.1201 37.5087C27.1298 37.6534 27.169 37.7947 27.2353 37.9237C27.3016 38.0527 27.3936 38.1668 27.5056 38.259L36.8505 46.972V59.6122H26.9192V55.2908C26.9195 55.1161 26.8767 54.944 26.7946 54.7899C26.7125 54.6357 26.5936 54.5042 26.4485 54.4071C23.5044 52.4389 21.1233 49.7385 19.5391 46.5713C17.955 43.4041 17.2224 39.8791 17.4133 36.3429Z" fill="#0E32AE"/>
<path d="M37.9076 10.3545C38.0474 10.3545 38.1858 10.3269 38.315 10.2734C38.4441 10.2198 38.5614 10.1413 38.6602 10.0423C38.759 9.94339 38.8372 9.82593 38.8906 9.69668C38.9439 9.56743 38.9712 9.42894 38.9709 9.28913V1.06333C38.9709 0.781314 38.8589 0.510853 38.6595 0.311441C38.46 0.112029 38.1896 0 37.9076 0C37.6256 0 37.3551 0.112029 37.1557 0.311441C36.9563 0.510853 36.8442 0.781314 36.8442 1.06333V9.28913C36.844 9.42894 36.8713 9.56743 36.9246 9.69668C36.9779 9.82593 37.0562 9.94339 37.155 10.0423C37.2537 10.1413 37.371 10.2198 37.5002 10.2734C37.6293 10.3269 37.7678 10.3545 37.9076 10.3545Z" fill="#0E32AE"/>
<path d="M74.7526 34.5116H66.5247C66.2427 34.5116 65.9723 34.6236 65.7729 34.823C65.5735 35.0225 65.4614 35.2929 65.4614 35.5749C65.4614 35.8569 65.5735 36.1274 65.7729 36.3268C65.9723 36.5262 66.2427 36.6382 66.5247 36.6382H74.7526C75.0346 36.6382 75.3051 36.5262 75.5045 36.3268C75.7039 36.1274 75.8159 35.8569 75.8159 35.5749C75.8159 35.2929 75.7039 35.0225 75.5045 34.823C75.3051 34.6236 75.0346 34.5116 74.7526 34.5116Z" fill="#0E32AE"/>
<path d="M57.8468 16.8624C57.986 16.8628 58.1239 16.8356 58.2525 16.7825C58.3811 16.7293 58.498 16.6512 58.5963 16.5527L64.4353 10.7571C64.6354 10.5583 64.7484 10.2882 64.7494 10.0061C64.7503 9.72401 64.6392 9.45309 64.4404 9.25295C64.2417 9.0528 63.9715 8.93982 63.6894 8.93885C63.4074 8.93788 63.1364 9.04901 62.9363 9.24779L57.1097 15.0434C56.9599 15.1917 56.8576 15.381 56.8157 15.5875C56.7738 15.794 56.7941 16.0083 56.8742 16.2032C56.9543 16.3981 57.0905 16.5648 57.2655 16.6822C57.4405 16.7996 57.6464 16.8623 57.8571 16.8624H57.8468Z" fill="#0E32AE"/>
<path d="M69.498 58.6067L62.7298 53.9301C62.4979 53.7729 62.2132 53.7136 61.9377 53.7651C61.6622 53.8166 61.4182 53.9748 61.2587 54.2053C61.0992 54.4358 61.0372 54.7199 61.0861 54.9959C61.1351 55.2718 61.291 55.5173 61.5199 55.679L68.2881 60.3576C68.403 60.437 68.5325 60.4931 68.6691 60.5225C68.8057 60.5519 68.9468 60.5541 69.0843 60.5289C69.2217 60.5038 69.3529 60.4519 69.4703 60.3761C69.5877 60.3003 69.689 60.2021 69.7684 60.0871C69.8479 59.9721 69.9039 59.8427 69.9333 59.706C69.9627 59.5694 69.9649 59.4284 69.9398 59.2909C69.9147 59.1534 69.8627 59.0223 69.7869 58.9049C69.7111 58.7875 69.6129 58.6862 69.498 58.6067Z" fill="#0E32AE"/>
<path d="M10.3524 35.5749C10.3524 35.2929 10.2404 35.0224 10.041 34.823C9.8416 34.6236 9.57114 34.5116 9.28912 34.5116H1.06333C0.781314 34.5116 0.510853 34.6236 0.311441 34.823C0.112029 35.0224 0 35.2929 0 35.5749C0 35.8569 0.112029 36.1274 0.311441 36.3268C0.510853 36.5262 0.781314 36.6382 1.06333 36.6382H9.28912C9.42884 36.6385 9.56723 36.6112 9.69636 36.5579C9.82549 36.5045 9.94282 36.4262 10.0416 36.3274C10.1404 36.2286 10.2187 36.1113 10.2721 35.9822C10.3254 35.853 10.3527 35.7146 10.3524 35.5749Z" fill="#0E32AE"/>
<path d="M17.2195 16.5527C17.3175 16.6558 17.4352 16.7382 17.5657 16.795C17.6961 16.8518 17.8366 16.8818 17.9789 16.8833C18.1211 16.8848 18.2622 16.8577 18.3939 16.8037C18.5255 16.7497 18.6449 16.6698 18.7451 16.5688C18.8453 16.4678 18.9242 16.3477 18.9771 16.2157C19.03 16.0836 19.0559 15.9423 19.0532 15.8C19.0506 15.6578 19.0194 15.5175 18.9615 15.3876C18.9037 15.2576 18.8203 15.1406 18.7164 15.0434L12.8774 9.24777C12.7794 9.14466 12.6617 9.06228 12.5312 9.00549C12.4008 8.94871 12.2603 8.91868 12.118 8.91717C11.9758 8.91567 11.8346 8.94273 11.703 8.99675C11.5714 9.05077 11.452 9.13065 11.3518 9.23166C11.2516 9.33267 11.1727 9.45276 11.1198 9.58481C11.0669 9.71686 11.041 9.85819 11.0436 10.0004C11.0463 10.1427 11.0775 10.2829 11.1354 10.4129C11.1932 10.5429 11.2766 10.6599 11.3805 10.7571L17.2195 16.5527Z" fill="#0E32AE"/>
<path d="M14.5583 54.2109C14.4791 54.0959 14.378 53.9977 14.2608 53.9219C14.1436 53.846 14.0126 53.794 13.8752 53.7689C13.7379 53.7438 13.597 53.746 13.4605 53.7754C13.324 53.8049 13.1947 53.8609 13.0799 53.9404L6.31802 58.6067C6.20305 58.686 6.10483 58.7872 6.02897 58.9044C5.95311 59.0217 5.90109 59.1528 5.87587 59.2902C5.82496 59.5676 5.88633 59.8539 6.04651 60.0861C6.12581 60.201 6.22699 60.2992 6.34426 60.3751C6.46152 60.451 6.59259 60.503 6.72996 60.5282C7.00739 60.5791 7.29369 60.5177 7.52587 60.3576L14.294 55.6789C14.5223 55.5182 14.6781 55.274 14.7275 54.9992C14.777 54.7244 14.7162 54.4412 14.5583 54.2109Z" fill="#0E32AE"/>
<path d="M63.1718 74.2386C48.4876 73.5201 41.864 79.4313 38.9714 83.9056V68.1312H49.9597C50.2418 68.1312 50.5122 68.0191 50.7116 67.8197C50.911 67.6203 51.0231 67.3499 51.0231 67.0678C51.0231 66.7858 50.911 66.5154 50.7116 66.316C50.5122 66.1165 50.2418 66.0045 49.9597 66.0045H25.8543C25.5723 66.0045 25.3018 66.1165 25.1024 66.316C24.903 66.5154 24.7909 66.7858 24.7909 67.0678C24.7909 67.3499 24.903 67.6203 25.1024 67.8197C25.3018 68.0191 25.5723 68.1312 25.8543 68.1312H36.8447V83.8952C33.9541 79.4231 27.3326 73.5221 12.6443 74.2386C12.3623 74.2525 12.0974 74.3777 11.9078 74.5868C11.7181 74.7958 11.6191 75.0716 11.6326 75.3535C11.6511 75.7045 12.1322 83.9943 18.7042 89.4431C22.3422 92.4617 27.0848 93.9855 32.8474 93.9855C34.5408 93.9738 36.2314 93.849 37.908 93.6118C39.5851 93.8434 41.2757 93.9627 42.9686 93.969C48.7313 93.969 53.4739 92.4514 57.1119 89.4266C63.6818 83.9778 64.1649 75.688 64.1815 75.337C64.1949 75.0554 64.0962 74.7799 63.907 74.5709C63.7178 74.3619 63.4534 74.2365 63.1718 74.2221V74.2386ZM20.0793 87.812C15.5369 84.0563 14.2403 78.5993 13.8852 76.3095C31.2287 75.8635 35.6348 85.0804 36.6135 88.1072C33.8922 85.7122 28.7407 81.8388 22.5528 80.4141C22.4127 80.369 22.2647 80.3535 22.1183 80.3686C21.9719 80.3836 21.8302 80.4289 21.7022 80.5015C21.5742 80.5742 21.4626 80.6726 21.3746 80.7906C21.2866 80.9086 21.2241 81.0436 21.191 81.187C21.1578 81.3304 21.1548 81.4791 21.1822 81.6238C21.2095 81.7684 21.2666 81.9058 21.3497 82.0272C21.4329 82.1487 21.5404 82.2515 21.6654 82.3292C21.7904 82.407 21.9302 82.4579 22.0759 82.4788C30.4503 84.4073 37.0615 91.4583 37.1276 91.5305L37.1565 91.5574C29.9114 92.4514 24.1695 91.1919 20.0793 87.812ZM55.7533 87.7975C51.6652 91.1878 45.915 92.4535 38.6596 91.5656C38.6697 91.5565 38.6794 91.5469 38.6885 91.5367C38.7546 91.4665 45.3451 84.4217 53.7402 82.4871C53.8859 82.4662 54.0257 82.4152 54.1507 82.3375C54.2757 82.2598 54.3832 82.1569 54.4663 82.0355C54.5495 81.914 54.6066 81.7767 54.6339 81.632C54.6613 81.4874 54.6583 81.3387 54.6251 81.1952C54.592 81.0518 54.5295 80.9169 54.4415 80.7989C54.3535 80.6809 54.2419 80.5824 54.1139 80.5098C53.9859 80.4371 53.8442 80.3919 53.6978 80.3768C53.5513 80.3618 53.4034 80.3773 53.2633 80.4224C47.0692 81.847 41.9301 85.7163 39.2067 88.1114C40.1999 85.0804 44.6452 75.8759 61.933 76.3177C61.5841 78.5931 60.2998 84.0253 55.7533 87.7975Z" fill="#0E32AE"/>
</svg>
