<svg width="75" height="77" viewBox="0 0 75 77" fill="none" xmlns="http://www.w3.org/2000/svg">
<path d="M73.5457 13.4637H63.4591V1.26837C63.4591 1.01194 63.3573 0.766019 63.1759 0.584699C62.9946 0.403378 62.7487 0.301514 62.4923 0.301514H17.5411C17.2847 0.301514 17.0388 0.403378 16.8575 0.584699C16.6761 0.766019 16.5743 1.01194 16.5743 1.26837V12.021H1.45123C1.1948 12.021 0.948881 12.1229 0.76756 12.3042C0.58624 12.4855 0.484375 12.7315 0.484375 12.9879V51.8881C0.484375 52.1445 0.58624 52.3904 0.76756 52.5718C0.948881 52.7531 1.1948 52.855 1.45123 52.855H16.5743V68.6424C16.5743 68.8988 16.6761 69.1447 16.8575 69.3261C17.0388 69.5074 17.2847 69.6093 17.5411 69.6093H38.0371V75.7264C38.0371 75.9829 38.139 76.2288 38.3203 76.4101C38.5016 76.5914 38.7475 76.6933 39.004 76.6933H55.0021C55.2585 76.6933 55.5045 76.5914 55.6858 76.4101C55.8671 76.2288 55.969 75.9829 55.969 75.7264V69.6093H62.4991C62.7555 69.6093 63.0014 69.5074 63.1827 69.3261C63.3641 69.1447 63.4659 68.8988 63.4659 68.6424V42.1244H73.5525C73.8089 42.1244 74.0548 42.0225 74.2362 41.8412C74.4175 41.6599 74.5193 41.414 74.5193 41.1575V14.4305C74.5193 14.303 74.4941 14.1767 74.4451 14.0589C74.3961 13.9412 74.3243 13.8343 74.2338 13.7444C74.1433 13.6546 74.0359 13.5835 73.9178 13.5353C73.7997 13.4871 73.6732 13.4628 73.5457 13.4637ZM72.5788 21.7694H52.4057V15.3906H72.5788V21.7694ZM32.6625 13.953V24.1076H2.41639V13.9547L32.6625 13.953ZM2.41639 26.0413H32.6625V50.9212H2.41639V26.0413ZM54.0285 64.0171H39.9708V59.939H54.0285V64.0171ZM54.0285 74.7647H39.9708V65.9508H54.0285V74.7647ZM61.5254 67.6755H55.9622V58.9755C55.9622 58.7191 55.8603 58.4732 55.679 58.2919C55.4977 58.1105 55.2517 58.0087 54.9953 58.0087H39.004C38.7475 58.0087 38.5016 58.1105 38.3203 58.2919C38.139 58.4732 38.0371 58.7191 38.0371 58.9755V67.6755H18.508V52.855H33.631C33.7579 52.855 33.8836 52.8299 34.0008 52.7813C34.118 52.7327 34.2245 52.6615 34.3141 52.5717C34.4038 52.4819 34.4748 52.3753 34.5232 52.258C34.5716 52.1407 34.5964 52.015 34.5962 51.8881V12.9879C34.5964 12.861 34.5716 12.7353 34.5232 12.618C34.4748 12.5007 34.4038 12.3941 34.3141 12.3043C34.2245 12.2145 34.118 12.1433 34.0008 12.0947C33.8836 12.046 33.7579 12.021 33.631 12.021H18.508V2.23522H61.5254V13.4637H51.4338C51.1773 13.4637 50.9314 13.5655 50.7501 13.7468C50.5688 13.9282 50.4669 14.1741 50.4669 14.4305V41.1575C50.4669 41.414 50.5688 41.6599 50.7501 41.8412C50.9314 42.0225 51.1773 42.1244 51.4338 42.1244H61.5186L61.5254 67.6755ZM52.4057 40.1992V23.7168H72.5788V40.1992H52.4057Z" fill="#0E32AE"/>
<path d="M9.70953 32.2943H26.5709C26.8273 32.2943 27.0732 32.1924 27.2545 32.0111C27.4359 31.8298 27.5377 31.5839 27.5377 31.3275C27.5377 31.071 27.4359 30.8251 27.2545 30.6438C27.0732 30.4625 26.8273 30.3606 26.5709 30.3606H9.70953C9.4531 30.3606 9.20718 30.4625 9.02586 30.6438C8.84454 30.8251 8.74268 31.071 8.74268 31.3275C8.74268 31.5839 8.84454 31.8298 9.02586 32.0111C9.20718 32.1924 9.4531 32.2943 9.70953 32.2943Z" fill="#0E32AE"/>
<path d="M9.70953 39.1796H26.5709C26.6978 39.1796 26.8236 39.1546 26.9409 39.106C27.0582 39.0574 27.1648 38.9862 27.2545 38.8964C27.3443 38.8066 27.4155 38.7 27.4641 38.5827C27.5127 38.4654 27.5377 38.3397 27.5377 38.2127C27.5377 38.0857 27.5127 37.96 27.4641 37.8427C27.4155 37.7254 27.3443 37.6188 27.2545 37.529C27.1648 37.4393 27.0582 37.368 26.9409 37.3194C26.8236 37.2709 26.6978 37.2458 26.5709 37.2458H9.70953C9.58256 37.2458 9.45684 37.2709 9.33953 37.3194C9.22223 37.368 9.11564 37.4393 9.02586 37.529C8.93608 37.6188 8.86486 37.7254 8.81627 37.8427C8.76768 37.96 8.74268 38.0857 8.74268 38.2127C8.74268 38.3397 8.76768 38.4654 8.81627 38.5827C8.86486 38.7 8.93608 38.8066 9.02586 38.8964C9.11564 38.9862 9.22223 39.0574 9.33953 39.106C9.45684 39.1546 9.58256 39.1796 9.70953 39.1796Z" fill="#0E32AE"/>
<path d="M27.5377 45.11C27.5377 44.8536 27.4359 44.6077 27.2545 44.4264C27.0732 44.245 26.8273 44.1432 26.5709 44.1432H9.70953C9.57926 44.1377 9.44924 44.1587 9.32727 44.2047C9.2053 44.2508 9.09392 44.3211 8.99982 44.4113C8.90571 44.5016 8.83083 44.6099 8.77967 44.7299C8.72852 44.8498 8.70215 44.9788 8.70215 45.1092C8.70215 45.2396 8.72852 45.3686 8.77967 45.4885C8.83083 45.6085 8.90571 45.7168 8.99982 45.807C9.09392 45.8973 9.2053 45.9676 9.32727 46.0137C9.44924 46.0597 9.57926 46.0807 9.70953 46.0752H26.5709C26.6978 46.0754 26.8235 46.0506 26.9407 46.0022C27.058 45.9538 27.1646 45.8828 27.2544 45.7931C27.3442 45.7035 27.4155 45.597 27.4641 45.4798C27.5127 45.3626 27.5377 45.2369 27.5377 45.11Z" fill="#0E32AE"/>
<path d="M68.7214 27.0388H56.2628C56.0063 27.0388 55.7604 27.1407 55.5791 27.322C55.3978 27.5033 55.2959 27.7493 55.2959 28.0057C55.2959 28.2621 55.3978 28.508 55.5791 28.6893C55.7604 28.8707 56.0063 28.9725 56.2628 28.9725H68.7214C68.9778 28.9725 69.2238 28.8707 69.4051 28.6893C69.5864 28.508 69.6883 28.2621 69.6883 28.0057C69.6883 27.7493 69.5864 27.5033 69.4051 27.322C69.2238 27.1407 68.9778 27.0388 68.7214 27.0388Z" fill="#0E32AE"/>
<path d="M68.7214 31.4722H56.2628C56.0063 31.4722 55.7604 31.574 55.5791 31.7554C55.3978 31.9367 55.2959 32.1826 55.2959 32.439C55.2959 32.6954 55.3978 32.9414 55.5791 33.1227C55.7604 33.304 56.0063 33.4059 56.2628 33.4059H68.7214C68.9778 33.4059 69.2238 33.304 69.4051 33.1227C69.5864 32.9414 69.6883 32.6954 69.6883 32.439C69.6883 32.1826 69.5864 31.9367 69.4051 31.7554C69.2238 31.574 68.9778 31.4722 68.7214 31.4722Z" fill="#0E32AE"/>
<path d="M68.7214 35.9051H56.2628C56.1325 35.8997 56.0025 35.9206 55.8805 35.9667C55.7585 36.0128 55.6471 36.0831 55.553 36.1733C55.4589 36.2635 55.3841 36.3719 55.3329 36.4918C55.2817 36.6117 55.2554 36.7408 55.2554 36.8712C55.2554 37.0015 55.2817 37.1306 55.3329 37.2505C55.3841 37.3704 55.4589 37.4788 55.553 37.569C55.6471 37.6593 55.7585 37.7295 55.8805 37.7756C56.0025 37.8217 56.1325 37.8426 56.2628 37.8372H68.7214C68.8517 37.8426 68.9817 37.8217 69.1037 37.7756C69.2256 37.7295 69.337 37.6593 69.4311 37.569C69.5252 37.4788 69.6001 37.3704 69.6513 37.2505C69.7024 37.1306 69.7288 37.0015 69.7288 36.8712C69.7288 36.7408 69.7024 36.6117 69.6513 36.4918C69.6001 36.3719 69.5252 36.2635 69.4311 36.1733C69.337 36.0831 69.2256 36.0128 69.1037 35.9667C68.9817 35.9206 68.8517 35.8997 68.7214 35.9051Z" fill="#0E32AE"/>
</svg>
