<svg width="79" height="79" viewBox="0 0 79 79" fill="none" xmlns="http://www.w3.org/2000/svg">
<path d="M77.2243 1.71484H1.77539V77.2853H77.2243V1.71484Z" stroke="#0E32AE" stroke-width="2.00005" stroke-linecap="round" stroke-linejoin="round"/>
<path d="M1.77539 16.2944H77.3459" stroke="#0E32AE" stroke-width="2.00005"/>
<path d="M10.2803 69.3881H66.4114" stroke="#0E32AE" stroke-width="2.00005" stroke-linecap="round" stroke-linejoin="round"/>
<path d="M15.3828 1.71484V15.4439" stroke="#0E32AE" stroke-width="0.0959968"/>
<path d="M16.1118 54.5656V63.5562" stroke="#0E32AE" stroke-width="2.00005" stroke-linecap="round" stroke-linejoin="round"/>
<path d="M27.5327 43.7524V63.5563" stroke="#0E32AE" stroke-width="2.00005" stroke-linecap="round" stroke-linejoin="round"/>
<path d="M38.832 50.0702V63.5562" stroke="#0E32AE" stroke-width="2.00005" stroke-linecap="round" stroke-linejoin="round"/>
<path d="M50.1309 43.6309V63.5562" stroke="#0E32AE" stroke-width="2.00005" stroke-linecap="round" stroke-linejoin="round"/>
<path d="M61.5513 33.9113V63.5562" stroke="#0E32AE" stroke-width="2.00005" stroke-linecap="round" stroke-linejoin="round"/>
<path d="M21.0933 6.69617H22.4297L23.4017 9.97656L24.2522 6.69617H25.5886L26.4391 9.97656L27.4111 6.69617H28.7475L27.1681 11.799H25.8316L24.9811 8.51861L24.1307 11.799H22.7942L21.0933 6.69617Z" fill="#0E32AE"/>
<path d="M30.4482 6.69617H31.6632L32.6352 9.97656L33.4856 6.69617H34.8221L35.6726 9.97656L36.6445 6.69617H37.981L36.4015 11.799H35.0651L34.2146 8.51861L33.3641 11.799H32.0277L30.4482 6.69617Z" fill="#0E32AE"/>
<path d="M39.6821 6.69617H40.8971L41.8691 9.97656L42.841 6.69617H44.056L44.9065 9.97656L45.8784 6.69617H47.2149L45.6354 11.799H44.299L43.4485 8.51861L42.598 11.799H41.2616L39.6821 6.69617Z" fill="#0E32AE"/>
<path d="M48.7943 11.799C49.264 11.799 49.6448 11.4182 49.6448 10.9485C49.6448 10.4788 49.264 10.098 48.7943 10.098C48.3246 10.098 47.9438 10.4788 47.9438 10.9485C47.9438 11.4182 48.3246 11.799 48.7943 11.799Z" fill="#0E32AE"/>
<path d="M15.0186 47.5188L29.8411 33.7897L40.6542 44.1169L62.0375 22.1261" stroke="#0E32AE" stroke-width="2.00005" stroke-linecap="round" stroke-linejoin="round"/>
<path d="M15.3828 1.71484V16.2943" stroke="#0E32AE" stroke-width="2.00005"/>
</svg>
