<svg width="93" height="77" viewBox="0 0 93 77" fill="none" xmlns="http://www.w3.org/2000/svg">
<path d="M8.56563 60.3313C8.43351 60.3313 8.30269 60.3573 8.18063 60.4079C8.05857 60.4584 7.94766 60.5325 7.85424 60.626C7.76082 60.7194 7.68671 60.8303 7.63615 60.9524C7.58559 61.0744 7.55957 61.2052 7.55957 61.3373V75.8876C7.55957 76.1545 7.66557 76.4104 7.85424 76.599C8.04291 76.7877 8.2988 76.8937 8.56563 76.8937C8.83245 76.8937 9.08834 76.7877 9.27702 76.599C9.46569 76.4104 9.57168 76.1545 9.57168 75.8876V61.3373C9.57168 61.0705 9.46569 60.8146 9.27702 60.626C9.08834 60.4373 8.83245 60.3313 8.56563 60.3313Z" fill="#0E32AE"/>
<path d="M91.425 0.106201H3.73448C3.46766 0.106201 3.21177 0.212196 3.0231 0.400868C2.83442 0.58954 2.72843 0.845434 2.72843 1.11226V55.3899C1.31051 57.8264 0.565083 60.5957 0.56837 63.4147V75.8878C0.56837 76.1546 0.674365 76.4105 0.863037 76.5992C1.05171 76.7878 1.3076 76.8938 1.57442 76.8938C1.84125 76.8938 2.09714 76.7878 2.28581 76.5992C2.47449 76.4105 2.58048 76.1546 2.58048 75.8878V63.4147C2.58361 59.701 4.06023 56.1404 6.68616 53.5145C9.31209 50.8886 12.8727 49.4119 16.5863 49.4088H19.7564C27.9627 49.4088 30.3022 50.2235 34.9636 51.847L40.9763 53.9361C41.1624 54.001 41.3636 54.0099 41.5547 53.9615C41.7458 53.9131 41.9186 53.8096 42.0514 53.6638L53.6013 40.9816C54.04 40.512 54.6263 40.2067 55.2626 40.1166C55.899 40.0265 56.547 40.1571 57.0988 40.4865C57.4576 40.6911 57.766 40.9737 58.0012 41.3133C58.2364 41.653 58.3924 42.041 58.4577 42.4489C58.523 42.8569 58.4959 43.2742 58.3785 43.6703C58.2612 44.0664 58.0564 44.4311 57.7794 44.7376L43.8721 60.2446C43.4844 60.6817 42.9892 61.01 42.4356 61.1968C41.882 61.3837 41.2892 61.4226 40.7159 61.3098L31.6278 58.3982C31.477 58.3493 31.3168 58.3368 31.1602 58.3617C31.0037 58.3867 30.8552 58.4483 30.7271 58.5417C30.5989 58.635 30.4947 58.7573 30.4229 58.8987C30.3511 59.0401 30.3138 59.1964 30.3141 59.3549V75.8878C30.3141 76.1546 30.4201 76.4105 30.6087 76.5992C30.7974 76.7878 31.0533 76.8938 31.3201 76.8938C31.5869 76.8938 31.8428 76.7878 32.0315 76.5992C32.2202 76.4105 32.3262 76.1546 32.3262 75.8878V69.6187H91.425C91.5571 69.6187 91.6879 69.5927 91.81 69.5421C91.932 69.4915 92.0429 69.4174 92.1364 69.324C92.2298 69.2306 92.3039 69.1197 92.3545 68.9976C92.405 68.8756 92.431 68.7447 92.431 68.6126V1.11226C92.431 0.980139 92.405 0.849317 92.3545 0.727256C92.3039 0.605196 92.2298 0.494289 92.1364 0.400868C92.0429 0.307447 91.932 0.233341 91.81 0.182782C91.6879 0.132223 91.5571 0.106201 91.425 0.106201ZM19.6065 47.2843C17.8118 47.2843 16.0574 46.7521 14.5651 45.755C13.0729 44.7579 11.9098 43.3407 11.223 41.6826C10.5362 40.0245 10.3565 38.2 10.7066 36.4397C11.0567 34.6795 11.921 33.0626 13.19 31.7936C14.4591 30.5245 16.076 29.6603 17.8362 29.3102C19.5964 28.96 21.4209 29.1397 23.079 29.8265C24.7371 30.5134 26.1543 31.6764 27.1514 33.1687C28.1485 34.6609 28.6807 36.4153 28.6807 38.21C28.6807 39.4017 28.446 40.5816 27.99 41.6826C27.5339 42.7835 26.8655 43.7839 26.0229 44.6265C25.1803 45.4691 24.18 46.1375 23.079 46.5935C21.9781 47.0495 20.7981 47.2843 19.6065 47.2843ZM90.4248 67.6026H32.338V60.7338L40.205 63.2509C41.1366 63.4543 42.1054 63.4075 43.0131 63.1155C43.9208 62.8234 44.7351 62.2964 45.3733 61.588L59.2805 46.0809C59.7613 45.5456 60.1152 44.9088 60.3159 44.2179C60.5165 43.5269 60.5588 42.7996 60.4396 42.0901C60.3203 41.3805 60.0426 40.707 59.6271 40.1196C59.2117 39.5322 58.6691 39.046 58.0397 38.6973C57.0942 38.1595 55.9943 37.958 54.9196 38.1257C53.8448 38.2934 52.8586 38.8203 52.1218 39.6205L41.0078 51.8135L35.6264 49.9454C32.1703 48.742 29.8485 47.9333 25.5027 47.588C27.542 46.3075 29.1086 44.3975 29.9654 42.1471C30.8223 39.8968 30.9227 37.4285 30.2515 35.116C29.5804 32.8034 28.1742 30.7724 26.2457 29.3304C24.3172 27.8884 21.9715 27.1139 19.5636 27.124C17.1556 27.1342 14.8165 27.9285 12.9002 29.3867C10.984 30.8449 9.59494 32.8876 8.94329 35.2057C8.29163 37.5239 8.41287 39.9912 9.28864 42.2342C10.1644 44.4773 11.747 46.374 13.797 47.6374C10.3071 48.2573 7.12164 50.0182 4.74054 52.644V2.11831H90.4189L90.4248 67.6026Z" fill="#0E32AE"/>
<path d="M34.9221 12.6403H79.0247C79.2916 12.6403 79.5475 12.5343 79.7361 12.3457C79.9248 12.157 80.0308 11.9011 80.0308 11.6343C80.0308 11.3675 79.9248 11.1116 79.7361 10.9229C79.5475 10.7342 79.2916 10.6282 79.0247 10.6282H34.9221C34.6552 10.6282 34.3994 10.7342 34.2107 10.9229C34.022 11.1116 33.916 11.3675 33.916 11.6343C33.916 11.9011 34.022 12.157 34.2107 12.3457C34.3994 12.5343 34.6552 12.6403 34.9221 12.6403Z" fill="#0E32AE"/>
<path d="M79.0248 20.6631H70.6193C70.4872 20.6631 70.3564 20.6892 70.2343 20.7397C70.1123 20.7903 70.0014 20.8644 69.9079 20.9578C69.8145 21.0512 69.7404 21.1621 69.6899 21.2842C69.6393 21.4063 69.6133 21.5371 69.6133 21.6692C69.6133 21.8013 69.6393 21.9321 69.6899 22.0542C69.7404 22.1763 69.8145 22.2872 69.9079 22.3806C70.0014 22.474 70.1123 22.5481 70.2343 22.5987C70.3564 22.6492 70.4872 22.6753 70.6193 22.6753H79.0248C79.1569 22.6753 79.2877 22.6492 79.4098 22.5987C79.5319 22.5481 79.6428 22.474 79.7362 22.3806C79.8296 22.2872 79.9037 22.1763 79.9543 22.0542C80.0048 21.9321 80.0309 21.8013 80.0309 21.6692C80.0309 21.5371 80.0048 21.4063 79.9543 21.2842C79.9037 21.1621 79.8296 21.0512 79.7362 20.9578C79.6428 20.8644 79.5319 20.7903 79.4098 20.7397C79.2877 20.6892 79.1569 20.6631 79.0248 20.6631Z" fill="#0E32AE"/>
<path d="M34.9221 22.6753H60.4719C60.604 22.6753 60.7349 22.6492 60.8569 22.5987C60.979 22.5481 61.0899 22.474 61.1833 22.3806C61.2767 22.2872 61.3508 22.1763 61.4014 22.0542C61.4519 21.9321 61.478 21.8013 61.478 21.6692C61.478 21.5371 61.4519 21.4063 61.4014 21.2842C61.3508 21.1621 61.2767 21.0512 61.1833 20.9578C61.0899 20.8644 60.979 20.7903 60.8569 20.7397C60.7349 20.6892 60.604 20.6631 60.4719 20.6631H34.9221C34.6552 20.6631 34.3994 20.7691 34.2107 20.9578C34.022 21.1465 33.916 21.4024 33.916 21.6692C33.916 21.936 34.022 22.1919 34.2107 22.3806C34.3994 22.5693 34.6552 22.6753 34.9221 22.6753Z" fill="#0E32AE"/>
<path d="M79.0247 30.6981H62.5393C62.2724 30.6981 62.0165 30.8041 61.8279 30.9928C61.6392 31.1815 61.5332 31.4374 61.5332 31.7042C61.5332 31.971 61.6392 32.2269 61.8279 32.4156C62.0165 32.6042 62.2724 32.7102 62.5393 32.7102H79.0247C79.2916 32.7102 79.5475 32.6042 79.7361 32.4156C79.9248 32.2269 80.0308 31.971 80.0308 31.7042C80.0308 31.4374 79.9248 31.1815 79.7361 30.9928C79.5475 30.8041 79.2916 30.6981 79.0247 30.6981Z" fill="#0E32AE"/>
<path d="M34.9221 32.7102H43.5643C43.8311 32.7102 44.087 32.6042 44.2757 32.4156C44.4643 32.2269 44.5703 31.971 44.5703 31.7042C44.5703 31.4374 44.4643 31.1815 44.2757 30.9928C44.087 30.8041 43.8311 30.6981 43.5643 30.6981H34.9221C34.6552 30.6981 34.3994 30.8041 34.2107 30.9928C34.022 31.1815 33.916 31.4374 33.916 31.7042C33.916 31.971 34.022 32.2269 34.2107 32.4156C34.3994 32.6042 34.6552 32.7102 34.9221 32.7102Z" fill="#0E32AE"/>
</svg>
