<svg width="72" height="73" viewBox="0 0 72 73" fill="none" xmlns="http://www.w3.org/2000/svg">
<path d="M0.47998 72.5H71.52V0.5H0.47998V72.5ZM3.43998 3.5H68.56V69.5H3.43998V3.5Z" fill="#0E32AE"/>
<path d="M7.87988 17H16.7599V8H7.87988V17ZM10.8399 11H13.7999V14H10.8399V11Z" fill="#0E32AE"/>
<path d="M7.87988 29H16.7599V20H7.87988V29ZM10.8399 23H13.7999V26H10.8399V23Z" fill="#0E32AE"/>
<path d="M7.87988 41H16.7599V32H7.87988V41ZM10.8399 35H13.7999V38H10.8399V35Z" fill="#0E32AE"/>
<path d="M7.87988 53H16.7599V44H7.87988V53ZM10.8399 47H13.7999V50H10.8399V47Z" fill="#0E32AE"/>
<path d="M7.87988 65H16.7599V56H7.87988V65ZM10.8399 59H13.7999V62H10.8399V59Z" fill="#0E32AE"/>
<path d="M55.2402 17H64.1202V8H55.2402V17ZM58.2002 11H61.1602V14H58.2002V11Z" fill="#0E32AE"/>
<path d="M55.2402 29H64.1202V20H55.2402V29ZM58.2002 23H61.1602V26H58.2002V23Z" fill="#0E32AE"/>
<path d="M55.2402 41H64.1202V32H55.2402V41ZM58.2002 35H61.1602V38H58.2002V35Z" fill="#0E32AE"/>
<path d="M55.2402 53H64.1202V44H55.2402V53ZM58.2002 47H61.1602V50H58.2002V47Z" fill="#0E32AE"/>
<path d="M55.2402 65H64.1202V56H55.2402V65ZM58.2002 59H61.1602V62H58.2002V59Z" fill="#0E32AE"/>
<path d="M27.1201 46.4269L46.7094 36.4999L27.1201 26.5729V46.4269ZM30.0801 31.4269L40.0908 36.4999L30.0801 41.5729V31.4269Z" fill="#0E32AE"/>
</svg>
