<svg width="93" height="83" viewBox="0 0 93 83" fill="none" xmlns="http://www.w3.org/2000/svg">
<path d="M36.6932 60.283C36.3419 60.283 35.9881 60.1609 35.6993 59.9126L25.7639 51.3685C25.4212 51.0735 25.2241 50.6425 25.2241 50.1874C25.2241 49.7331 25.422 49.3022 25.7639 49.0071L35.6993 40.463C36.3445 39.9075 37.3135 39.9862 37.8636 40.6378C38.4128 41.2903 38.3357 42.2689 37.6897 42.8236L29.1277 50.1874L37.6897 57.5512C38.3357 58.1067 38.4128 59.0854 37.8636 59.7369C37.5594 60.0978 37.1276 60.283 36.6932 60.283Z" fill="#0E32AE"/>
<path d="M56.3066 58.6872C55.8722 58.6872 55.4404 58.5021 55.1371 58.1412C54.5871 57.4896 54.665 56.511 55.3102 55.9555L63.8721 48.5917L55.3102 41.228C54.665 40.6733 54.5871 39.6947 55.1371 39.0422C55.6863 38.3907 56.6562 38.3119 57.3005 38.8674L67.2359 47.4115C67.5786 47.7065 67.7757 48.1374 67.7757 48.5917C67.7757 49.0469 67.5786 49.4778 67.2359 49.7729L57.3005 58.3169C57.0118 58.5652 56.6579 58.6872 56.3066 58.6872Z" fill="#0E32AE"/>
<path d="M42.9826 66.6917C42.8772 66.6917 42.771 66.6804 42.6639 66.6579C41.8345 66.4814 41.3033 65.6585 41.4781 64.8208L47.6702 35.1293C47.845 34.2916 48.6589 33.7552 49.4892 33.9317C50.3185 34.1082 50.8498 34.9302 50.675 35.7687L44.4829 65.4603C44.3304 66.1906 43.6929 66.6917 42.9826 66.6917Z" fill="#0E32AE"/>
<path d="M82.691 82.8675H10.309C4.62498 82.8675 0 78.1974 0 72.456V10.4114C0 4.67095 4.62498 0 10.309 0H82.691C88.375 0 93 4.67095 93 10.4114V72.456C93 78.1974 88.375 82.8675 82.691 82.8675ZM10.309 3.10128C6.31801 3.10128 3.07075 6.38081 3.07075 10.4114V72.456C3.07075 76.4866 6.31801 79.7662 10.309 79.7662H82.691C86.682 79.7662 89.9292 76.4866 89.9292 72.456V10.4114C89.9292 6.38081 86.682 3.10128 82.691 3.10128H10.309Z" fill="#0E32AE"/>
<path d="M91.4646 24.8314H1.53538C0.68715 24.8314 0 24.1372 0 23.2803C0 22.4242 0.68715 21.7291 1.53538 21.7291H91.4646C92.3129 21.7291 93 22.4242 93 23.2803C93 24.1372 92.3129 24.8314 91.4646 24.8314Z" fill="#0E32AE"/>
<path d="M26.2334 17.4102C23.5551 17.4102 21.3745 15.208 21.3745 12.5031C21.3745 9.79728 23.5551 7.59595 26.2334 7.59595C28.9126 7.59595 31.0923 9.79728 31.0923 12.5031C31.0923 15.208 28.9126 17.4102 26.2334 17.4102ZM26.2334 10.6972C25.2481 10.6972 24.4453 11.5071 24.4453 12.5031C24.4453 13.4991 25.2481 14.309 26.2334 14.309C27.2196 14.309 28.0215 13.4991 28.0215 12.5031C28.0215 11.5071 27.2196 10.6972 26.2334 10.6972Z" fill="#0E32AE"/>
<path d="M11.3047 17.3626C8.62549 17.3626 6.4458 15.1613 6.4458 12.4555C6.4458 9.74967 8.62549 7.54834 11.3047 7.54834C13.9839 7.54834 16.1636 9.74967 16.1636 12.4555C16.1636 15.1613 13.9839 17.3626 11.3047 17.3626ZM11.3047 10.6496C10.3194 10.6496 9.51655 11.4604 9.51655 12.4555C9.51655 13.4514 10.3194 14.2614 11.3047 14.2614C12.2909 14.2614 13.0928 13.4514 13.0928 12.4555C13.0928 11.4604 12.2909 10.6496 11.3047 10.6496Z" fill="#0E32AE"/>
<path d="M41.1622 17.4571C38.4839 17.4571 36.3042 15.2557 36.3042 12.5499C36.3042 9.84491 38.4839 7.64355 41.1622 7.64355C43.8414 7.64355 46.0211 9.84491 46.0211 12.5499C46.0211 15.2557 43.8414 17.4571 41.1622 17.4571ZM41.1622 10.744C40.1769 10.744 39.375 11.5539 39.375 12.5499C39.375 13.5459 40.1769 14.3558 41.1622 14.3558C42.1484 14.3558 42.9504 13.5459 42.9504 12.5499C42.9504 11.5539 42.1484 10.744 41.1622 10.744Z" fill="#0E32AE"/>
</svg>
